<?xml version="1.0" encoding="UTF-8" standalone="no"?>
<svg
   xmlns:dc="http://purl.org/dc/elements/1.1/"
   xmlns:cc="http://creativecommons.org/ns#"
   xmlns:rdf="http://www.w3.org/1999/02/22-rdf-syntax-ns#"
   xmlns:svg="http://www.w3.org/2000/svg"
   xmlns="http://www.w3.org/2000/svg"
   xmlns:sodipodi="http://sodipodi.sourceforge.net/DTD/sodipodi-0.dtd"
   xmlns:inkscape="http://www.inkscape.org/namespaces/inkscape"
   version="1.1"
   x="0px"
   y="0px"
   viewBox="0 0 30.0005 89"
   enable-background="new 0 0 90 90"
   xml:space="preserve"
   id="svg42"
   sodipodi:docname="scrolldown.svg"
   inkscape:version="0.92.3 (2405546, 2018-03-11)"
   width="30.0005"
   height="89"><metadata
     id="metadata48"><rdf:RDF><cc:Work
         rdf:about=""><dc:format>image/svg+xml</dc:format><dc:type
           rdf:resource="http://purl.org/dc/dcmitype/StillImage" /><dc:title></dc:title></cc:Work></rdf:RDF></metadata><defs
     id="defs46" /><sodipodi:namedview
     pagecolor="#ffffff"
     bordercolor="#666666"
     borderopacity="1"
     objecttolerance="10"
     gridtolerance="10"
     guidetolerance="10"
     inkscape:pageopacity="0"
     inkscape:pageshadow="2"
     inkscape:window-width="1920"
     inkscape:window-height="1017"
     id="namedview44"
     showgrid="false"
     inkscape:zoom="7.5377778"
     inkscape:cx="-17.967026"
     inkscape:cy="39.697444"
     inkscape:window-x="-8"
     inkscape:window-y="-8"
     inkscape:window-maximized="1"
     inkscape:current-layer="svg42" /><circle
     cx="15.00025"
     cy="12.5"
     r="3"
     id="circle30"
     style="fill:#f9f9f9" /><path
     d="m 15.00025,0 c -8.284,0 -15,6.717 -15,15.002 v 24.996 c 0,8.285 6.716,15.002 15,15.002 8.284,0 15,-6.717 15,-15.002 V 15.002 c 0,-8.285 -6.716,-15.002 -15,-15.002 z m 13,39.998 c 0,7.169 -5.832,13.002 -13,13.002 -7.168,0 -13,-5.833 -13,-13.002 V 15.002 c 0,-7.169 5.832,-13.002 13,-13.002 7.168,0 13,5.833 13,13.002 z"
     id="path32"
     style="fill:#f9f9f9"
     inkscape:connector-curvature="0" /><path
     d="m 28.29325,59.293 -13.293,13.293 -13.293,-13.293 c -0.391,-0.391 -1.023,-0.391 -1.414,0 -0.391,0.391 -0.391,1.023 0,1.414 l 14,14 c 0.195,0.195 0.451,0.293 0.707,0.293 0.256,0 0.512,-0.098 0.707,-0.293 l 14,-14 c 0.391,-0.391 0.391,-1.023 0,-1.414 -0.391,-0.391 -1.023,-0.391 -1.414,0 z"
     id="path34"
     style="fill:#f9f9f9"
     inkscape:connector-curvature="0" /><path
     d="m 28.29325,73.293 -13.293,13.293 -13.293,-13.293 c -0.391,-0.391 -1.023,-0.391 -1.414,0 -0.391,0.391 -0.391,1.023 0,1.414 l 14,14 c 0.195,0.195 0.451,0.293 0.707,0.293 0.256,0 0.512,-0.098 0.707,-0.293 l 14,-14 c 0.391,-0.391 0.391,-1.023 0,-1.414 -0.391,-0.391 -1.023,-0.391 -1.414,0 z"
     id="path36"
     style="fill:#f9f9f9"
     inkscape:connector-curvature="0" /></svg>